<svg width="12" height="15" viewBox="0 0 12 15" fill="none" xmlns="http://www.w3.org/2000/svg">
<path d="M11.5569 5.8428C11.4891 5.7732 11.2331 5.4756 10.9946 5.2308C9.59649 3.6912 5.94915 1.1712 4.04014 0.402C3.75022 0.2784 3.01724 0.0168 2.62562 0C2.25036 0 1.89264 0.0864 1.55129 0.2616C1.12577 0.5064 0.784413 0.8916 0.59737 1.3464C0.476961 1.662 0.289917 2.6064 0.289917 2.6232C0.102874 3.6564 -4.76837e-07 5.3352 -4.76837e-07 7.1904C-4.76837e-07 8.958 0.102874 10.5684 0.256015 11.6172C0.273551 11.634 0.460594 12.8076 0.665173 13.2096C1.04043 13.944 1.7734 14.4 2.55782 14.4H2.62562C3.13648 14.382 4.21081 13.926 4.21081 13.9092C6.01695 13.1388 9.58013 10.7424 11.0122 9.15C11.0122 9.15 11.4155 8.7408 11.5908 8.4852C11.8644 8.118 12 7.6632 12 7.2084C12 6.7008 11.8469 6.228 11.5569 5.8428Z" fill="white"/>
</svg>
