<svg width="40" height="40" viewBox="0 0 40 40" fill="none" xmlns="http://www.w3.org/2000/svg">
<path d="M27.6521 18C25.0916 18 24.7372 20.5715 24.7372 20.5715H30.1772C30.1772 20.5715 30.2126 18 27.6521 18V18ZM15.3103 20.5715H10.4905V25.0357H15.0711C15.7621 25.0179 17.0557 24.8215 17.0557 22.8661C17.0557 20.5447 15.3103 20.5715 15.3103 20.5715V20.5715Z" fill="url(#paint0_linear_49_1765)"/>
<path d="M19.8462 0C8.88647 0 0 8.95536 0 20C0 31.0446 8.88647 40 19.8462 40C30.8058 40 39.6923 31.0446 39.6923 20C39.6923 8.95536 30.8058 0 19.8462 0ZM24.028 12.2857H30.859V14.3393H24.028V12.2857V12.2857ZM20.5727 23.0714C20.5727 28.1607 15.3099 28 15.3099 28H6.69808V11.3036H15.3099C17.9324 11.3036 19.9968 12.7589 19.9968 15.75C19.9968 18.7411 17.4717 18.9286 17.4717 18.9286C20.803 18.9286 20.5727 23.0714 20.5727 23.0714ZM33.3486 22.7946H24.7634C24.7634 25.8929 27.6783 25.6964 27.6783 25.6964C30.4337 25.6964 30.3363 23.9018 30.3363 23.9018H33.2512C33.2512 28.6696 27.5808 28.3393 27.5808 28.3393C20.7853 28.3393 21.2194 21.9554 21.2194 21.9554C21.2194 21.9554 21.2106 15.5446 27.5808 15.5446C34.2878 15.5536 33.3486 22.7946 33.3486 22.7946V22.7946Z" fill="url(#paint1_linear_49_1765)"/>
<path d="M16.4798 16.0089C16.4798 14.2767 15.3103 14.2767 15.3103 14.2767H10.4905V17.9999H15.0091C15.7887 17.9999 16.4798 17.741 16.4798 16.0089Z" fill="url(#paint2_linear_49_1765)"/>
<defs>
<linearGradient id="paint0_linear_49_1765" x1="20.3339" y1="18" x2="20.3339" y2="25.0357" gradientUnits="userSpaceOnUse">
<stop stop-color="#1400FF"/>
<stop offset="1" stop-color="#AD00FF"/>
</linearGradient>
<linearGradient id="paint1_linear_49_1765" x1="19.8462" y1="0" x2="19.8462" y2="40" gradientUnits="userSpaceOnUse">
<stop stop-color="#1400FF"/>
<stop offset="1" stop-color="#AD00FF"/>
</linearGradient>
<linearGradient id="paint2_linear_49_1765" x1="13.4852" y1="14.2767" x2="13.4852" y2="17.9999" gradientUnits="userSpaceOnUse">
<stop stop-color="#1400FF"/>
<stop offset="1" stop-color="#AD00FF"/>
</linearGradient>
</defs>
</svg>
