<svg width="40" height="40" viewBox="0 0 40 40" fill="none" xmlns="http://www.w3.org/2000/svg">
<path d="M19.8462 0C8.88913 0 0 8.95804 0 20C0 31.042 8.88913 40 19.8462 40C30.8032 40 39.6923 31.0518 39.6923 20C39.6923 8.94821 30.8032 0 19.8462 0ZM32.4467 9.21875C34.743 11.9391 36.1098 15.3319 36.345 18.8955C32.7683 18.708 28.489 18.708 25.0575 19.0312C24.6234 17.9268 24.1786 16.8438 23.6931 15.8018C27.6499 14.0732 30.6995 11.8018 32.4467 9.21875V9.21875ZM19.8462 3.33304C23.701 3.32636 27.436 4.68317 30.4001 7.16696C28.6015 9.45804 25.7796 11.4527 22.2649 12.958C20.3423 9.375 18.13 6.29196 15.7706 3.86429C17.1021 3.51791 18.4711 3.33946 19.8462 3.33304V3.33304ZM12.3622 5.15625C14.7499 7.55179 16.9933 10.6027 18.9575 14.1741C15.2257 15.3232 10.9464 15.9821 6.37912 15.9821C5.51085 15.9821 4.66385 15.9509 3.82659 15.8982C4.40899 13.5988 5.47167 11.4511 6.94364 9.5986C8.4156 7.74616 10.2629 6.23164 12.3622 5.15625V5.15625ZM3.33841 19.208C4.27933 19.25 5.22999 19.2705 6.19129 19.2607C11.4009 19.1982 16.249 18.375 20.415 17.0286C20.8077 17.8518 21.1799 18.6955 21.5313 19.5598C21.0279 19.6709 20.5336 19.8201 20.0526 20.0063C14.3575 22.417 9.87169 26.3018 7.44231 31C4.77845 27.9645 3.30783 24.0523 3.3074 20C3.3074 19.7321 3.31803 19.4688 3.33841 19.208V19.208ZM19.8462 36.667C16.1718 36.6715 12.6018 35.4355 9.70601 33.1563C11.9077 28.7607 15.8353 25.1205 20.7871 22.8643C21.2522 22.6455 21.8724 22.4687 22.5856 22.3125C23.1763 23.9577 23.7035 25.6661 24.1671 27.4375C24.8596 30.1111 25.3697 32.8294 25.6937 35.5732C23.827 36.294 21.8452 36.6647 19.8462 36.667V36.667ZM28.7876 34.0107C28.4641 31.2384 27.9493 28.4921 27.2468 25.792C26.8924 24.4375 26.4928 23.125 26.0587 21.8437C29.3041 21.5759 33.1909 21.6143 36.2813 21.8437C36.0089 24.3058 35.1949 26.6756 33.8985 28.7805C32.6021 30.8853 30.8561 32.6721 28.7876 34.0107V34.0107Z" fill="url(#paint0_linear_49_1771)"/>
<defs>
<linearGradient id="paint0_linear_49_1771" x1="19.8462" y1="0" x2="19.8462" y2="40" gradientUnits="userSpaceOnUse">
<stop stop-color="#1400FF"/>
<stop offset="1" stop-color="#AD00FF"/>
</linearGradient>
</defs>
</svg>
