<svg width="40" height="40" viewBox="0 0 40 40" fill="none" xmlns="http://www.w3.org/2000/svg">
<path d="M28.1151 3.33304C30.3064 3.33963 32.406 4.21978 33.9555 5.78127C35.505 7.34276 36.3784 9.4587 36.3849 11.667V28.333C36.3784 30.5413 35.505 32.6572 33.9555 34.2187C32.406 35.7802 30.3064 36.6604 28.1151 36.667H11.5772C9.38594 36.6604 7.28628 35.7802 5.7368 34.2187C4.18732 32.6572 3.31394 30.5413 3.3074 28.333V11.667C3.31394 9.4587 4.18732 7.34276 5.7368 5.78127C7.28628 4.21978 9.38594 3.33963 11.5772 3.33304H28.1151V3.33304ZM28.1151 0H11.5772C5.20962 0 0 5.25 0 11.667V28.333C0 34.75 5.20962 40 11.5772 40H28.1151C34.4827 40 39.6923 34.75 39.6923 28.333V11.667C39.6923 5.25 34.4827 0 28.1151 0V0Z" fill="url(#paint0_linear_49_1774)"/>
<path d="M30.5959 11.667C30.1052 11.667 29.6256 11.5204 29.2176 11.2457C28.8097 10.971 28.4917 10.5805 28.3039 10.1237C28.1162 9.66692 28.067 9.16425 28.1628 8.6793C28.2585 8.19435 28.4948 7.74889 28.8417 7.39926C29.1886 7.04963 29.6307 6.81152 30.1119 6.71506C30.5931 6.6186 31.0919 6.66811 31.5452 6.85732C31.9985 7.04654 32.386 7.36698 32.6586 7.7781C32.9311 8.18922 33.0766 8.67257 33.0766 9.16702C33.0773 9.49553 33.0136 9.82093 32.8892 10.1246C32.7648 10.4282 32.5821 10.7041 32.3516 10.9364C32.1211 11.1687 31.8473 11.3528 31.546 11.4782C31.2447 11.6035 30.9218 11.6677 30.5959 11.667V11.667ZM19.8462 13.3331C21.1546 13.3331 22.4337 13.7241 23.5216 14.4567C24.6096 15.1893 25.4575 16.2305 25.9583 17.4487C26.459 18.667 26.59 20.0075 26.3347 21.3007C26.0795 22.594 25.4494 23.7819 24.5242 24.7143C23.5989 25.6467 22.4201 26.2817 21.1368 26.5389C19.8535 26.7962 18.5233 26.6641 17.3145 26.1595C16.1056 25.6549 15.0724 24.8004 14.3454 23.704C13.6185 22.6076 13.2305 21.3187 13.2305 20.0001C13.2324 18.2325 13.93 16.5378 15.1702 15.2879C16.4105 14.038 18.0922 13.335 19.8462 13.3331V13.3331ZM19.8462 10.0001C17.8836 10.0001 15.965 10.5865 14.3332 11.6854C12.7014 12.7842 11.4295 14.346 10.6784 16.1732C9.92738 18.0005 9.73087 20.0112 10.1138 21.951C10.4966 23.8908 11.4417 25.6726 12.8295 27.0711C14.2173 28.4697 15.9854 29.4221 17.9103 29.8079C19.8352 30.1938 21.8304 29.9957 23.6436 29.2389C25.4568 28.482 27.0065 27.2003 28.0969 25.5558C29.1873 23.9113 29.7692 21.9779 29.7692 20.0001C29.7692 17.3479 28.7238 14.8044 26.8628 12.929C25.0019 11.0536 22.4779 10.0001 19.8462 10.0001V10.0001Z" fill="url(#paint1_linear_49_1774)"/>
<defs>
<linearGradient id="paint0_linear_49_1774" x1="19.8462" y1="0" x2="19.8462" y2="40" gradientUnits="userSpaceOnUse">
<stop stop-color="#1400FF"/>
<stop offset="1" stop-color="#AD00FF"/>
</linearGradient>
<linearGradient id="paint1_linear_49_1774" x1="21.4999" y1="6.66702" x2="21.4999" y2="30.0001" gradientUnits="userSpaceOnUse">
<stop stop-color="#1400FF"/>
<stop offset="1" stop-color="#AD00FF"/>
</linearGradient>
</defs>
</svg>
