<svg width="32" height="29" viewBox="0 0 32 29" fill="none" xmlns="http://www.w3.org/2000/svg">
<path d="M23.9024 0C26.048 0 28.112 0.848 29.6304 2.3696C31.1504 3.888 32 5.936 32 8.08V20.72C32 25.184 28.368 28.8 23.9024 28.8H8.096C3.6304 28.8 0 25.184 0 20.72V8.08C0 3.616 3.6144 0 8.096 0H23.9024ZM25.712 8.32C25.376 8.3024 25.056 8.416 24.8144 8.64L17.6 14.4C16.672 15.1696 15.3424 15.1696 14.4 14.4L7.2 8.64C6.7024 8.272 6.0144 8.32 5.6 8.752C5.168 9.184 5.12 9.872 5.4864 10.352L5.696 10.56L12.976 16.24C13.872 16.944 14.9584 17.328 16.096 17.328C17.2304 17.328 18.336 16.944 19.2304 16.24L26.448 10.464L26.576 10.336C26.9584 9.872 26.9584 9.2 26.5584 8.736C26.336 8.4976 26.0304 8.352 25.712 8.32Z" fill="white"/>
</svg>
